<svg width="230" height="230" viewBox="0 0 230 230" fill="none" xmlns="http://www.w3.org/2000/svg">
<path fill-rule="evenodd" clip-rule="evenodd" d="M139.167 50.7161L137.501 57.358L187.5 51.5473L199.167 19.1667L38.3361 54.0371L139.167 50.7161ZM59.9992 67.321L60.036 67.3233L60.0022 67.3265L59.9992 67.321ZM60.036 67.3233L230 51.5509L189.999 196.845L151.667 166.125L160 139.558L165.834 142.879L185.001 86.4176L120.002 87.2488L126.668 71.4733L60.036 67.3233ZM0 45.7355L110.831 133.745L119.998 116.307L0 45.7355ZM172.5 94.7221H132.501L106.668 147.031L28.3335 83.9296L135.835 207.639L172.5 94.7221Z" fill="#FAFAFA"/>
</svg>
