<svg width="17" height="18" viewBox="0 0 17 18" fill="none" xmlns="http://www.w3.org/2000/svg">
    <path fill-rule="evenodd" clip-rule="evenodd" d="M13 2.518H3.111a.926.926 0 0 0-.926.926v11.112c0 .51.415.926.926.926h11.111a.926.926 0 0 0 .926-.926V4.73L13 2.518zm-1.093 12.038H5.426v-3.704h6.481v3.704zm.926 0h1.39v-9.45l-1.617-1.662H5.89v2.778h6.481a.926.926 0 0 1-.926.926H5.89a.926.926 0 0 1-.926-.926V3.444H3.111v11.112H4.5v-3.704c0-.511.415-.926.926-.926h6.481c.512 0 .926.415.926.926v3.704z" fill="#000"/>
</svg>
