<svg width="17" height="18" viewBox="0 0 17 18" fill="none" xmlns="http://www.w3.org/2000/svg">
    <path d="M10.982 3.38h-.88v-.861h-2.87v.86h-.88v-.86c0-.494.386-.902.88-.926h2.87c.493.024.88.432.88.926v.86zm-4.63 3.305h.926v6.945h-.926V6.685zm4.63 0h-.926v6.945h.926V6.685zm3.601-1.852H2.648a.463.463 0 0 1 0-.926h11.935a.463.463 0 1 1 0 .926zM4.435 16.407h8.463a1.356 1.356 0 0 0 1.324-1.389V5.867h-.926v9.152a.43.43 0 0 1-.398.463H4.435a.43.43 0 0 1-.398-.463V5.867h-.926v9.152a1.357 1.357 0 0 0 1.324 1.39z" fill="#000"/>
</svg>
